<svg xmlns="http://www.w3.org/2000/svg" width="30.429" height="43.276" viewBox="0 0 30.429 43.276"><g transform="translate(-1164.618 -3114.362)"><path d="M173.607,90a7.607,7.607,0,1,0,7.607,7.607A7.616,7.616,0,0,0,173.607,90Zm0,12.7a5.088,5.088,0,1,1,5.08-5.088A5.092,5.092,0,0,1,173.607,102.7Z" transform="translate(1006.225 3031.969)" fill="#fff"/><path d="M91.214,0A15.217,15.217,0,0,0,78.271,23.215L90.348,42.677a1.268,1.268,0,0,0,1.077.6h.01a1.268,1.268,0,0,0,1.078-.616l11.769-19.651A15.218,15.218,0,0,0,91.214,0Zm10.892,21.707-10.7,17.866L80.426,21.879a12.687,12.687,0,1,1,21.68-.171Z" transform="translate(1088.618 3114.362)" fill="#fff"/></g></svg>