<svg xmlns="http://www.w3.org/2000/svg" width="43" height="43" viewBox="0 0 43 43"><path d="M6.3,43H20.324V27.715H15.285V22.676h5.039v-6.3a6.306,6.306,0,0,1,6.3-6.3h6.3v5.039H27.883a2.522,2.522,0,0,0-2.52,2.52v5.039h7.331l-.84,5.039H25.363V43H36.7A6.306,6.306,0,0,0,43,36.7V6.3A6.306,6.306,0,0,0,36.7,0H6.3A6.306,6.306,0,0,0,0,6.3V36.7A6.306,6.306,0,0,0,6.3,43ZM2.52,6.3A3.784,3.784,0,0,1,6.3,2.52H36.7A3.784,3.784,0,0,1,40.48,6.3V36.7A3.784,3.784,0,0,1,36.7,40.48H27.883V30.234h6.106l1.68-10.078H27.883v-2.52h7.559V7.559H26.623A8.828,8.828,0,0,0,17.8,16.377v3.779H12.766V30.234H17.8V40.48H6.3A3.784,3.784,0,0,1,2.52,36.7Zm0,0" fill="#fff"/></svg>