<svg xmlns="http://www.w3.org/2000/svg" xmlns:xlink="http://www.w3.org/1999/xlink" width="72.546" height="72.546" viewBox="0 0 72.546 72.546"><defs><clipPath id="a"><path d="M0-236.8H72.546v72.546H0Z" transform="translate(0 236.797)" fill="#fff"/></clipPath></defs><g transform="translate(-1312.118 -1367.118)"><g transform="translate(1312.118 1367.118)" clip-path="url(#a)"><g transform="translate(0 0)"><path d="M-82.125-155.372a32.255,32.255,0,0,1-22.8-9.421,32.533,32.533,0,0,1-5.866-7.946,32.147,32.147,0,0,1-3.686-14.984,32.388,32.388,0,0,1,32.351-32.351,32.221,32.221,0,0,1,21.943,8.6,32.5,32.5,0,0,1,7.245,9.8,32.151,32.151,0,0,1,3.163,13.945,32.388,32.388,0,0,1-32.351,32.351m0-68.624A36.314,36.314,0,0,0-118.4-187.723,36.314,36.314,0,0,0-82.125-151.45a36.314,36.314,0,0,0,36.273-36.273A36.314,36.314,0,0,0-82.125-224" transform="translate(118.398 223.996)" fill="#fff"/></g><g transform="translate(20.506 24.264)"><path d="M-17.755-8.879a3.921,3.921,0,0,1-3.921,3.921A3.921,3.921,0,0,1-25.6-8.879,3.921,3.921,0,0,1-21.676-12.8a3.921,3.921,0,0,1,3.921,3.922" transform="translate(25.597 12.801)" fill="#fff"/></g><g transform="translate(44.77 24.264)"><path d="M-17.758-8.879A3.921,3.921,0,0,1-21.68-4.959,3.921,3.921,0,0,1-25.6-8.879,3.922,3.922,0,0,1-21.68-12.8a3.921,3.921,0,0,1,3.922,3.922" transform="translate(25.602 12.801)" fill="#fff"/></g><g transform="translate(17.323 43.92)"><path d="M-42.748-28.187a22.765,22.765,0,0,0,19.02-10.322l-3.293-2.128a18.791,18.791,0,0,1-17.817,8.408,18.808,18.808,0,0,1-13.5-8.408l-3.293,2.128A22.768,22.768,0,0,0-45.288-28.333a22.028,22.028,0,0,0,2.539.146" transform="translate(61.629 40.637)" fill="#fff"/></g></g></g></svg>