<svg xmlns="http://www.w3.org/2000/svg" width="99.326" height="43.111" viewBox="0 0 99.326 43.111"><g transform="translate(0 -28.107)"><path d="M99.3,60.244a.811.811,0,0,0-.719-.792l-1.326-.15-.026-1.353.641-.59a1.686,1.686,0,0,0,.541-1.269l-.08-4.219A1.679,1.679,0,0,0,96.95,50.25S96.211,33.886,92.8,30.864c-3.75-3.321-66.754-3.7-80.39-.823a5.412,5.412,0,0,0-2.9,1.662c-2.844,3.14-5.724,9.506-5.724,9.506a3.96,3.96,0,0,0-2.4,2.924,27.493,27.493,0,0,0-.206,5.693l-.088,0A1.11,1.11,0,0,0,0,50.957l.047,2.45a1.105,1.105,0,0,0,.339.777,1.124,1.124,0,0,0,.79.31l.2,0c.072,1.328.153,2.611.229,3.732a4.114,4.114,0,0,0,4.108,3.834l6.867,0,2.56-5.7a3,3,0,0,1,2.682-1.771l5.967-.114a3,3,0,0,1,2.673,1.53l3.406,6.05,38.994-.022,3.116-5.946A3.068,3.068,0,0,1,74.7,54.431l5.688.007a3.067,3.067,0,0,1,2.695,1.608l4.834,8.938,5.937-.074a2.638,2.638,0,0,0,2.4-1.669L98.8,62.3a.808.808,0,0,0,.529-.774ZM9.961,41.373a1.6,1.6,0,0,1-1.495-2.24l2.46-5.607a1.438,1.438,0,0,1,1.292-.862l.9-.017.083,8.664Zm18.131-1.624A1.42,1.42,0,0,1,26.7,41.055L13.919,41.3l-.082-8.666,13.284-.253a1.419,1.419,0,0,1,1.443,1.535Zm29.194.886a1.426,1.426,0,0,1-1.019.422L34.4,40.941a1.42,1.42,0,0,1-1.412-1.393l-.111-5.818a1.421,1.421,0,0,1,1.431-1.447l21.863.174a1.42,1.42,0,0,1,1.409,1.394l.109,5.761A1.413,1.413,0,0,1,57.286,40.635Zm29.526-.129a1.429,1.429,0,0,1-1.1.521l-23.166-.089a1.422,1.422,0,0,1-1.414-1.394l-.109-5.816a1.421,1.421,0,0,1,1.43-1.447l20.539.164a3.345,3.345,0,0,1,3.251,2.673l.865,4.2A1.424,1.424,0,0,1,86.812,40.506Z" fill="#fff"/><path d="M20.931,56.037A7.592,7.592,0,0,0,13.412,63.7a7.485,7.485,0,0,0,.076.954,7.585,7.585,0,0,0,15.08-.45c.016-.215.029-.432.027-.649A7.59,7.59,0,0,0,20.931,56.037ZM20.3,58.926l.021,2.184a2.509,2.509,0,0,0-.668.286l-1.562-1.53A4.7,4.7,0,0,1,20.3,58.926ZM17.174,60.8l1.564,1.533a2.614,2.614,0,0,0-.27.671l-2.182.021A4.718,4.718,0,0,1,17.174,60.8Zm-.883,3.538,2.2-.021a2.552,2.552,0,0,0,.281.656l-1.537,1.565A4.745,4.745,0,0,1,16.291,64.342Zm1.889,3.116L19.709,65.9a2.677,2.677,0,0,0,.661.26l.021,2.188A4.709,4.709,0,0,1,18.18,67.458Zm7.53-4.52-2.183.021a2.644,2.644,0,0,0-.281-.665l1.534-1.563A4.727,4.727,0,0,1,25.71,62.938Zm-4.094-4.025a4.707,4.707,0,0,1,2.226.9l-1.531,1.562a2.568,2.568,0,0,0-.674-.275Zm.089,9.423-.021-2.188a2.508,2.508,0,0,0,.657-.274L23.9,67.406A4.7,4.7,0,0,1,21.7,68.336Zm3.128-1.861-1.571-1.541a2.646,2.646,0,0,0,.276-.661l2.181-.021A4.714,4.714,0,0,1,24.833,66.475Z" fill="#fff"/><path d="M77.514,56.037A7.593,7.593,0,0,0,70,63.7a7.485,7.485,0,0,0,.076.954,7.585,7.585,0,0,0,15.08-.45c.016-.215.028-.432.026-.649A7.588,7.588,0,0,0,77.514,56.037Zm-.629,2.889.021,2.184a2.509,2.509,0,0,0-.668.286l-1.562-1.53A4.7,4.7,0,0,1,76.885,58.926ZM73.757,60.8l1.564,1.533a2.652,2.652,0,0,0-.271.671l-2.182.021A4.739,4.739,0,0,1,73.757,60.8Zm-.883,3.538,2.2-.021a2.518,2.518,0,0,0,.281.656l-1.537,1.565A4.745,4.745,0,0,1,72.874,64.342Zm1.889,3.116L76.292,65.9a2.677,2.677,0,0,0,.661.26l.021,2.188A4.709,4.709,0,0,1,74.763,67.458Zm7.53-4.52-2.183.022a2.644,2.644,0,0,0-.281-.665l1.534-1.563A4.7,4.7,0,0,1,82.293,62.938ZM78.2,58.913a4.707,4.707,0,0,1,2.226.9l-1.53,1.562a2.575,2.575,0,0,0-.675-.275Zm.089,9.423-.021-2.188a2.515,2.515,0,0,0,.656-.274l1.559,1.532A4.7,4.7,0,0,1,78.288,68.336Zm3.128-1.861-1.571-1.541a2.61,2.61,0,0,0,.276-.661l2.181-.021A4.7,4.7,0,0,1,81.416,66.475Z" fill="#fff"/></g></svg>