<svg xmlns="http://www.w3.org/2000/svg" xmlns:xlink="http://www.w3.org/1999/xlink" width="89.057" height="81.629" viewBox="0 0 89.057 81.629"><defs><clipPath id="a"><path d="M0-251.251H89.058V-332.88H0Z" transform="translate(-0.001 332.88)" fill="#fff"/></clipPath></defs><g transform="translate(-780.355 -1362.074)"><g transform="translate(780.355 1362.074)" clip-path="url(#a)"><g transform="translate(0 0.039)"><path d="M-253.414-123.3-287.1-88.38-320.7-123.358a20.622,20.622,0,0,1-5.73-14.38,20.521,20.521,0,0,1,5.71-14.36,19,19,0,0,1,13.778-5.945,19.069,19.069,0,0,1,13.834,5.964l4.26,4.433a2.467,2.467,0,0,0,3.6,0l4.221-4.394A19.058,19.058,0,0,1-267.211-158a19.075,19.075,0,0,1,13.8,5.944,20.607,20.607,0,0,1,5.711,14.38,20.523,20.523,0,0,1-5.711,14.38m3.619-32.506a23.926,23.926,0,0,0-17.4-7.495,23.991,23.991,0,0,0-17.415,7.514l-2.432,2.531-2.469-2.57a24.052,24.052,0,0,0-17.434-7.533,23.964,23.964,0,0,0-17.378,7.494,25.9,25.9,0,0,0-7.2,18.127,25.973,25.973,0,0,0,7.237,18.107l35.4,36.842A2.51,2.51,0,0,0-287.1-82a2.491,2.491,0,0,0,1.791-.765l35.472-36.783a26,26,0,0,0,7.219-18.127,25.878,25.878,0,0,0-7.181-18.126" transform="translate(331.52 163.359)" fill="#fff"/></g></g></g></svg>