<svg xmlns="http://www.w3.org/2000/svg" width="38.036" height="43.276" viewBox="0 0 38.036 43.276"><g transform="translate(10.143 5.071)"><path d="M159.875,60A8.874,8.874,0,0,0,155.1,76.353a9.058,9.058,0,0,0,8.827.482,1.268,1.268,0,0,0-1.06-2.3,6.569,6.569,0,0,1-6.4-.313,6.338,6.338,0,1,1,9.748-5.343,1.268,1.268,0,0,1-2.536.019c0-.006,0-.013,0-.019a3.809,3.809,0,1,0-1.268,2.832,3.8,3.8,0,0,0,6.339-2.832A8.885,8.885,0,0,0,159.875,60Zm1.25,9.078a1.265,1.265,0,1,1,.009-.348A1.269,1.269,0,0,0,161.125,69.078Z" transform="translate(-151 -60)" fill="#fff"/></g><path d="M69.036,16.649a1.276,1.276,0,0,0-.371-.895l-4.7-4.7V1.268A1.268,1.268,0,0,0,62.7,0H37.339a1.268,1.268,0,0,0-1.268,1.268v9.787l-4.7,4.7-.012.014a1.273,1.273,0,0,0-.359.881V39.473a3.808,3.808,0,0,0,3.8,3.8H65.232a3.808,3.808,0,0,0,3.8-3.8V16.649Zm-5.071-2.009,2.011,2.011-2.011,2.011ZM38.607,11.58h0V2.536H61.429v9.044h0V21.2l-6.864,6.864H45.472L38.607,21.2Zm-2.536,3.06v4.021l-2.011-2.011ZM33.536,38.948V19.712l9.618,9.618Zm1.793,1.793L45.472,30.6h9.093L64.707,40.741ZM66.5,38.948,56.882,29.33,66.5,19.712Z" transform="translate(-31)" fill="#fff"/></svg>