<svg xmlns="http://www.w3.org/2000/svg" width="99.442" height="38.943" viewBox="0 0 99.442 38.943"><g transform="translate(0 -30.25)"><path d="M19.1,54.071a7.56,7.56,0,0,0-7.561,7.56,7.418,7.418,0,0,0,.066.951,7.555,7.555,0,0,0,15.024-.305c.018-.214.033-.428.033-.646A7.558,7.558,0,0,0,19.1,54.071ZM15.31,58.782l1.543,1.543a2.555,2.555,0,0,0-.274.665H14.405A4.71,4.71,0,0,1,15.31,58.782ZM14.4,62.3h2.189a2.55,2.55,0,0,0,.274.656L15.314,64.5A4.745,4.745,0,0,1,14.4,62.3Zm4.046,4.03a4.692,4.692,0,0,1-2.193-.908l1.537-1.538a2.618,2.618,0,0,0,.656.266Zm0-7.212a2.608,2.608,0,0,0-.668.279l-1.541-1.541a4.7,4.7,0,0,1,2.209-.913Zm1.309-2.175a4.676,4.676,0,0,1,2.209.914l-1.54,1.54a2.565,2.565,0,0,0-.669-.279Zm0,9.387V64.146a2.521,2.521,0,0,0,.657-.268l1.538,1.54A4.7,4.7,0,0,1,19.752,66.328ZM22.885,64.5l-1.551-1.551a2.583,2.583,0,0,0,.282-.655h2.172A4.7,4.7,0,0,1,22.885,64.5ZM21.617,60.99a2.555,2.555,0,0,0-.274-.665l1.543-1.543a4.7,4.7,0,0,1,.905,2.208Z" fill="#fff"/><path d="M83.965,54.071a7.559,7.559,0,0,0-7.561,7.56,7.419,7.419,0,0,0,.065.951,7.555,7.555,0,0,0,15.024-.305c.018-.214.031-.428.031-.646A7.556,7.556,0,0,0,83.965,54.071Zm-3.788,4.711,1.543,1.543a2.553,2.553,0,0,0-.273.665H79.272A4.71,4.71,0,0,1,80.177,58.782ZM79.265,62.3h2.19a2.58,2.58,0,0,0,.272.656L80.182,64.5A4.724,4.724,0,0,1,79.265,62.3Zm4.045,4.03a4.689,4.689,0,0,1-2.192-.908l1.537-1.538a2.611,2.611,0,0,0,.655.266Zm0-7.212a2.645,2.645,0,0,0-.669.279L81.1,57.854a4.7,4.7,0,0,1,2.209-.913v2.175Zm1.31-2.175a4.689,4.689,0,0,1,2.209.914L85.288,59.4a2.587,2.587,0,0,0-.668-.279Zm0,9.387V64.146a2.508,2.508,0,0,0,.655-.268l1.538,1.54A4.7,4.7,0,0,1,84.62,66.328ZM87.752,64.5,86.2,62.953a2.546,2.546,0,0,0,.281-.655h2.174A4.722,4.722,0,0,1,87.752,64.5ZM86.483,60.99a2.585,2.585,0,0,0-.272-.665l1.542-1.543a4.711,4.711,0,0,1,.906,2.208Z" fill="#fff"/><path d="M99.091,47.939a10.35,10.35,0,0,0-1.339-4.754L92.322,33.6A5.274,5.274,0,0,0,88,30.94c-9.1-.456-37-1.618-45.786.744-5.942,1.6-20.936,11.456-20.936,11.456S4.781,45.695,1.634,53.219A3.827,3.827,0,0,0,.029,56.045,12.5,12.5,0,0,0,.554,60.01a3.768,3.768,0,0,0,3.067,2.783l7.16,1.122A8.633,8.633,0,1,1,27.737,61.63c0,.249-.016.493-.036.735a8.513,8.513,0,0,1-.567,2.408l.842.045,47.568-1.287c-.061-.268-.109-.538-.145-.814a8.419,8.419,0,0,1-.074-1.087,8.639,8.639,0,0,1,17.278,0c0,.249-.016.493-.037.735-.013.16-.041.315-.062.473l4.1-.838a3.538,3.538,0,0,0,2.831-3.589ZM71.715,32.71l1.093,10.911-16.774.686V32.655C60.938,32.542,66.536,32.593,71.715,32.71ZM29.387,45.087l-1.659.093a1.019,1.019,0,0,1-.658-1.839c.975-.712,2.169-1.563,3.5-2.462v2.784A5.1,5.1,0,0,0,29.387,45.087ZM33.5,42.533c-.1,0-.191.03-.291.04V39.15a50.4,50.4,0,0,1,10.511-5.34,35.548,35.548,0,0,1,7.636-.98V44.5l-14.412.589A3.251,3.251,0,0,0,33.5,42.533Zm58.27-1.058a2.941,2.941,0,0,1-2.426,1.471L77.49,43.43,76.428,32.836c4.9.149,8.99.333,11.063.445a2.732,2.732,0,0,1,2.271,1.454l2.057,3.9A2.94,2.94,0,0,1,91.768,41.475Z" fill="#fff"/></g></svg>