<svg xmlns="http://www.w3.org/2000/svg" width="95.136" height="90.062" viewBox="0 0 95.136 90.062"><g transform="translate(-153.285 -1358.15)"><path d="M182.986,107.839a1.934,1.934,0,0,0-1.3-.826c-2.713,0-26.073-.944-26.073-28.079a1.534,1.534,0,1,0-3.067,0c0,27.135-23.36,28.079-25.955,28.079a1.34,1.34,0,0,0-.944.354c-.236.118-.354.354-.472.472a1.75,1.75,0,0,0,0,1.534,1.637,1.637,0,0,0,1.416.826h.118c2.713,0,25.955.944,25.955,28.079a1.534,1.534,0,0,0,3.067,0c0-27.017,23.242-28.079,25.955-28.079a1.8,1.8,0,0,0,1.416-.826A1.451,1.451,0,0,0,182.986,107.839Zm-28.9,18.876c-3.421-11.208-11.8-16.045-18.4-18.169,6.607-2.124,14.983-6.961,18.4-18.169,3.421,11.208,11.8,16.045,18.4,18.169C165.879,110.671,157.5,115.508,154.081,126.716Z" transform="translate(65.153 1301.041)" fill="#fff"/><path d="M78.916,28.657a1.59,1.59,0,0,0,1.534-1.652,1.562,1.562,0,0,0-1.534-1.534c-1.416,0-14.157-.472-14.157-15.337a1.534,1.534,0,1,0-3.067,0c0,14.865-12.742,15.337-14.157,15.337h-.118A1.54,1.54,0,0,0,46,27.005a1.562,1.562,0,0,0,1.534,1.534c1.534,0,14.157.472,14.157,15.337a1.562,1.562,0,0,0,1.534,1.534,1.36,1.36,0,0,0,1.416-1.416c0-14.865,12.742-15.337,14.157-15.337h.118ZM63.107,35.382a15.822,15.822,0,0,0-8.494-8.376,15.873,15.873,0,0,0,8.494-8.376A15.822,15.822,0,0,0,71.6,27.005,15.873,15.873,0,0,0,63.107,35.382Z" transform="translate(120.853 1349.549)" fill="#fff"/><path d="M32.916,205.872c-1.416,0-14.157-.472-14.157-15.337a1.534,1.534,0,1,0-3.067,0c0,14.865-12.742,15.337-14.157,15.337H1.416A1.54,1.54,0,0,0,0,207.406a1.562,1.562,0,0,0,1.534,1.534c1.534,0,14.157.472,14.157,15.337a1.562,1.562,0,0,0,1.534,1.534c.708.236,1.416-.472,1.416-1.416,0-14.865,12.742-15.337,14.157-15.337h.118a1.59,1.59,0,0,0,1.534-1.652A1.562,1.562,0,0,0,32.916,205.872ZM17.107,215.9a16.212,16.212,0,0,0-8.494-8.376,15.873,15.873,0,0,0,8.494-8.376,15.822,15.822,0,0,0,8.494,8.376A15.873,15.873,0,0,0,17.107,215.9Z" transform="translate(153.285 1222.357)" fill="#fff"/></g></svg>