<svg xmlns="http://www.w3.org/2000/svg" width="43.275" height="43.276" viewBox="0 0 43.275 43.276"><path d="M42.173,31.919l-5.38-5.38a3.809,3.809,0,0,0-5.38,0l-2.445,2.445a2.885,2.885,0,0,1-4.075,0l-10.6-10.608a2.88,2.88,0,0,1,0-4.076l2.445-2.445a3.8,3.8,0,0,0,0-5.381L11.358,1.113a3.807,3.807,0,0,0-5.376,0L4.022,3.052a13.733,13.733,0,0,0,0,19.4l16.794,16.8a13.71,13.71,0,0,0,19.4,0L42.173,37.3A3.808,3.808,0,0,0,42.173,31.919ZM7.772,2.906a1.27,1.27,0,0,1,1.795,0l5.378,5.362a1.267,1.267,0,0,1,0,1.793l-.9.9L6.88,3.79ZM22.61,37.462,5.815,20.659a11.149,11.149,0,0,1-.7-15.046l7.148,7.148A5.413,5.413,0,0,0,12.5,20.17L23.1,30.778h0a5.412,5.412,0,0,0,7.409.236l7.148,7.148A11.127,11.127,0,0,1,22.61,37.462Zm17.77-1.957-.9.9L32.31,29.229l.9-.9a1.27,1.27,0,0,1,1.793,0l5.38,5.38A1.269,1.269,0,0,1,40.38,35.506Z" transform="translate(-0.011 0)" fill="#fff"/></svg>