<svg xmlns="http://www.w3.org/2000/svg" width="43.276" height="43.276" viewBox="0 0 43.276 43.276"><path d="M21.554,0a21.638,21.638,0,0,0,0,43.276A21.839,21.839,0,0,0,43.276,21.554,21.687,21.687,0,0,0,21.554,0Zm0,40.758a19.12,19.12,0,1,1,19.2-19.2A19.154,19.154,0,0,1,21.554,40.758Z" fill="#fff"/><g transform="translate(20.455 15.214)"><path d="M245.06,186.339l4.175-4.175a1.268,1.268,0,0,0-1.793-1.793l-5.071,5.071a1.268,1.268,0,0,0,0,1.793l5.071,5.071a1.268,1.268,0,0,0,1.793-1.793Z" transform="translate(-241.999 -179.999)" fill="#fff"/></g><g transform="translate(5.071 5.071)"><path d="M76.482,60a16.567,16.567,0,0,0,0,33.133,16.567,16.567,0,1,0,0-33.133ZM87.266,85.473l-.754-.754a1.268,1.268,0,0,0-1.793,1.793l.753.753a14.074,14.074,0,0,1-7.723,3.271V89.33a1.268,1.268,0,1,0-2.536,0v1.209a13.8,13.8,0,0,1-7.631-3.2l.83-.83a1.268,1.268,0,0,0-1.793-1.793l-.823.823a14.144,14.144,0,0,1-3.2-7.793H63.8a1.268,1.268,0,1,0,0-2.536h-1.21a13.884,13.884,0,0,1,3.176-7.652l.851.851a1.268,1.268,0,0,0,1.793-1.793l-.851-.851a13.884,13.884,0,0,1,7.652-3.176V63.8a1.268,1.268,0,1,0,2.536,0V62.593a14.143,14.143,0,0,1,7.793,3.2l-.823.823a1.268,1.268,0,1,0,1.793,1.793l.83-.83a13.8,13.8,0,0,1,3.2,7.631H89.33a1.268,1.268,0,1,0,0,2.536h1.207A14.074,14.074,0,0,1,87.266,85.473Z" transform="translate(-60 -60)" fill="#fff"/></g></svg>